<?xml version="1.0" encoding="utf-8"?>
<!-- Generator: Adobe Illustrator 22.1.0, SVG Export Plug-In . SVG Version: 6.00 Build 0)  -->
<!DOCTYPE svg PUBLIC "-//W3C//DTD SVG 1.1//EN" "http://www.w3.org/Graphics/SVG/1.1/DTD/svg11.dtd">
<svg version="1.1" id="Layer_1" xmlns="http://www.w3.org/2000/svg" xmlns:xlink="http://www.w3.org/1999/xlink" x="0px" y="0px"
	 viewBox="0 0 506 129" style="enable-background:new 0 0 506 129;" xml:space="preserve">
<style type="text/css">
	.st0{fill:#3075B6;}
	.st1{fill:#264C92;}
	.st2{fill:#FFFFFF;}
	.st3{fill:#3376B6;}
</style>
<path class="st0" d="M158.2,38c-0.1,3.9-0.2,7.9-0.2,11.8v12v3.9v11.9c0,4,0.1,7.9,0.2,11.9l8,0.8v4.3h-27.7v-4.3l8-0.8
	c0.1-3.9,0.2-7.9,0.2-11.8v-12v-3.9V49.9c0-3.9-0.1-7.9-0.2-11.9l-8-0.8v-4.3h27.7v4.3L158.2,38z"/>
<path class="st0" d="M201.7,32.9c4.4,0,8.5,0.7,12.2,2c3.7,1.3,6.9,3.3,9.6,5.9c2.7,2.6,4.8,5.8,6.3,9.7s2.2,8.2,2.2,13.1
	c0,5-0.8,9.5-2.5,13.4c-1.7,3.9-3.9,7.1-6.8,9.8c-2.9,2.6-6.3,4.6-10.2,5.9c-3.9,1.3-8.2,2-12.7,2h-26v-4.3l8-0.8
	c0.1-3.9,0.2-7.9,0.2-12V64.7v-2.9V49.9c0-3.9-0.1-7.9-0.2-11.9l-8-0.8v-4.3H201.7z M199.3,89.9c3,0,5.8-0.6,8.4-1.7
	c2.6-1.1,4.7-2.8,6.5-5c1.8-2.2,3.2-4.9,4.2-8.2c1-3.3,1.5-7,1.5-11.2c0-8.5-1.9-15-5.6-19.5c-3.8-4.4-8.8-6.7-15-6.7h-5.7
	c-0.1,4-0.2,8-0.2,12v12.2v2.9v12.9c0,4.1,0.1,8.2,0.2,12.3H199.3z"/>
<path class="st0" d="M262.8,58.9c3.2,1.2,5.9,2.4,8.1,3.8c2.2,1.3,4,2.8,5.3,4.3c1.4,1.6,2.3,3.2,2.9,4.9c0.6,1.7,0.9,3.6,0.9,5.5
	c0,2.7-0.6,5.2-1.7,7.5c-1.2,2.3-2.8,4.2-4.8,5.9c-2.1,1.6-4.5,2.9-7.4,3.8c-2.9,0.9-6,1.4-9.5,1.4c-3.5,0-7-0.5-10.4-1.4
	c-3.4-0.9-6.2-2.1-8.6-3.5l0.6-13.4h6.8l1.9,11.1c1.4,0.7,2.9,1.3,4.4,1.7c1.5,0.4,3.2,0.6,5.1,0.6c4.2,0,7.5-0.9,9.9-2.8
	c2.4-1.9,3.6-4.5,3.6-7.8c0-1.3-0.2-2.5-0.6-3.5c-0.4-1-1-1.9-1.9-2.7c-0.9-0.8-2-1.6-3.3-2.2c-1.3-0.7-2.9-1.4-4.8-2.1l-4.1-1.5
	c-5.2-2-9.4-4.5-12.4-7.6c-3-3.1-4.5-7-4.5-11.6c0-2.7,0.5-5.1,1.6-7.3c1.1-2.2,2.5-4,4.4-5.6c1.9-1.6,4.2-2.8,6.9-3.6
	c2.7-0.9,5.7-1.3,9-1.3c3.3,0,6.3,0.4,9.1,1.3c2.8,0.9,5.2,2.1,7.4,3.6l-0.7,12.5h-6.7l-2-10.9c-2.4-1.1-4.9-1.6-7.4-1.6
	c-1.7,0-3.2,0.2-4.7,0.7c-1.4,0.4-2.7,1.1-3.7,1.9c-1.1,0.8-1.9,1.9-2.5,3.2c-0.6,1.3-0.9,2.7-0.9,4.3c0,2.8,0.9,5,2.7,6.6
	c1.8,1.6,4.3,3,7.7,4.2L262.8,58.9z"/>
<path class="st0" d="M337.1,90.9v3.7h-22.8v-3.7l6.3-1.2c0.1-2.3,0.1-4.8,0.1-7.5V75v-8.6c0-3.9-0.5-6.7-1.4-8.4
	c-1-1.6-2.7-2.5-5.1-2.5c-2,0-3.9,0.5-5.8,1.4c-1.9,1-3.9,2.4-6,4.4V75v7.1c0,2.7,0,5.2,0.1,7.5l5.9,1.2v3.7h-22.8v-3.7l6.3-1.2
	c0.1-2.4,0.1-4.9,0.1-7.6V75V35.7l-7.4-0.9v-3.5l16.5-4.2l1.3,0.7L302.1,41v15.9c2.6-2.8,5.1-4.9,7.7-6.3c2.6-1.4,5.4-2.1,8.5-2.1
	c4.2,0,7.4,1.3,9.6,4c2.2,2.6,3.3,6.9,3.3,12.8V75v7.2c0,2.7,0,5.2,0.1,7.5L337.1,90.9z"/>
<path class="st0" d="M366.2,90.9v3.7h-22.8v-3.7l6.3-1.2c0.1-2.4,0.1-4.9,0.1-7.6V75v-4.7c0-2.5,0-4.7-0.1-6.4
	c-0.1-1.7-0.1-3.5-0.2-5.4l-6.8-0.8v-3.5l16.3-5.8l1.4,0.9l-0.3,13V75v7.1c0,2.7,0,5.2,0.1,7.5L366.2,90.9z M354.9,39.6
	c-2,0-3.7-0.6-5-1.9c-1.4-1.2-2.1-2.9-2.1-4.9s0.7-3.6,2.1-4.9c1.4-1.2,3-1.9,5-1.9c2,0,3.7,0.6,5,1.9c1.3,1.2,2,2.9,2,4.9
	s-0.7,3.6-2,4.9C358.6,39,356.9,39.6,354.9,39.6"/>
<path class="st0" d="M381.8,72.3c0.1,5.7,1.5,9.9,4.1,12.8c2.6,2.9,6,4.3,10.2,4.3c2.9,0,5.2-0.6,7.1-1.8c1.9-1.2,3.6-2.9,5.2-5
	l2.7,1.7c-1.4,3.7-3.8,6.6-7,8.7C400.9,95,397,96,392.5,96c-3.3,0-6.3-0.5-8.9-1.6c-2.6-1.1-4.9-2.6-6.8-4.6c-1.9-2-3.4-4.5-4.4-7.4
	c-1-2.9-1.5-6.2-1.5-9.8c0-3.5,0.6-6.8,1.7-9.8c1.2-3,2.7-5.5,4.8-7.6c2-2.1,4.4-3.8,7.1-4.9c2.7-1.2,5.7-1.8,8.8-1.8
	c2.7,0,5.2,0.5,7.5,1.4c2.3,0.9,4.2,2.2,5.8,3.8c1.6,1.6,2.9,3.6,3.8,5.9c0.9,2.3,1.4,4.9,1.4,7.8c0,0.9-0.1,1.8-0.2,2.7
	c-0.1,0.8-0.3,1.6-0.5,2.3H381.8z M396,68c2.2,0,3.7-0.5,4.5-1.4c0.8-0.9,1.2-2.2,1.2-3.9c0-2.8-0.8-5.1-2.4-7
	c-1.6-1.9-3.6-2.8-5.9-2.8c-1.2,0-2.4,0.3-3.6,0.8c-1.2,0.5-2.4,1.4-3.5,2.6c-1.1,1.2-2,2.7-2.8,4.7c-0.7,1.9-1.2,4.3-1.5,7.1H396z"
	/>
<path class="st0" d="M439,90.9v3.7h-23.4v-3.7l6.5-1.2c0.1-2.5,0.1-4.9,0.1-7.4c0-2.4,0-4.9,0-7.3V35.7l-7.4-0.9v-3.5l16.7-4.2
	l1.3,0.7L432.5,41V75c0,2.4,0,4.9,0,7.3c0,2.5,0.1,4.9,0.1,7.3L439,90.9z"/>
<path class="st0" d="M492,90.9v3.7l-15.7,0.9l-0.7-5.8c-1.8,2-3.8,3.5-5.9,4.6c-2.1,1.1-4.6,1.6-7.5,1.6c-2.7,0-5.3-0.5-7.6-1.6
	c-2.3-1.1-4.3-2.6-5.9-4.6c-1.7-2-2.9-4.5-3.9-7.4c-0.9-2.9-1.4-6.2-1.4-9.8c0-3.7,0.5-7,1.5-9.9c1-3,2.4-5.5,4.2-7.6
	c1.8-2.1,3.9-3.7,6.3-4.9c2.4-1.1,5-1.7,7.8-1.7c4.9,0,9,1.9,12.3,5.6V35.7l-7.7-0.9v-3.5l16.7-4.2l1.3,0.7L485.6,41v48.7L492,90.9z
	 M475.2,58.6c-3.3-2.5-6.3-3.8-9.1-3.8c-1.6,0-3,0.3-4.4,1c-1.4,0.7-2.6,1.8-3.7,3.2c-1.1,1.5-1.9,3.3-2.6,5.5
	c-0.6,2.2-0.9,4.8-0.9,7.8c0,5.9,1.1,10.3,3.2,13.1c2.1,2.8,4.9,4.2,8.2,4.2c3.1,0,6.2-1.3,9.3-3.9V58.6z"/>
<path class="st1" d="M55.2,129c0,0,53.2-14.2,53.2-63.5v-46c0,0-29-2.8-53.2-19.5C31,16.7,2,19.5,2,19.5v46
	C2,114.8,55.2,129,55.2,129"/>
<path class="st0" d="M55.2,6.4C36.7,18.2,16.4,22.7,7.4,24.1v41.3c0,18.5,8.1,33.9,24.1,45.7c9.9,7.3,20.1,11,23.7,12.2V6.4z"/>
<path class="st2" d="M62.4,38c-0.1,4-0.2,7.9-0.2,11.9V62v3.3v12c0,4,0.1,8,0.2,12l7.7,0.9V95H40.3v-4.8l7.7-0.9
	c0.1-4,0.2-7.9,0.2-11.9V65.4V62V50c0-4-0.1-8-0.2-12l-7.7-0.9v-4.8h29.8v4.8L62.4,38z"/>
<rect x="54" y="37.9" class="st3" width="2.4" height="51.6"/>
<g>
	<path class="st0" d="M501.5,24.9c0.9,0.6,1.7,1.3,2.2,2.2s0.8,2,0.8,3.1c0,1.1-0.3,2.1-0.8,3.1c-0.6,0.9-1.3,1.7-2.2,2.2
		c-0.9,0.6-2,0.8-3.1,0.8c-1.1,0-2.1-0.3-3.1-0.8c-0.9-0.6-1.7-1.3-2.2-2.2c-0.6-0.9-0.8-2-0.8-3.1c0-1.1,0.3-2.1,0.8-3.1
		c0.6-0.9,1.3-1.7,2.2-2.2c0.9-0.6,2-0.8,3.1-0.8C499.6,24.1,500.6,24.4,501.5,24.9z M500.9,34.5c0.7-0.4,1.3-1,1.8-1.8
		c0.4-0.8,0.6-1.6,0.6-2.5c0-0.9-0.2-1.7-0.6-2.5s-1-1.4-1.8-1.8s-1.6-0.7-2.5-0.7c-0.9,0-1.7,0.2-2.5,0.7c-0.7,0.4-1.3,1-1.8,1.8
		s-0.6,1.6-0.6,2.5c0,0.9,0.2,1.7,0.6,2.5c0.4,0.8,1,1.4,1.8,1.8c0.7,0.4,1.6,0.7,2.5,0.7C499.3,35.2,500.2,35,500.9,34.5z
		 M496.1,33.2c-0.1-0.1-0.1-0.2-0.1-0.3v-5.5c0-0.1,0-0.2,0.1-0.3c0.1-0.1,0.2-0.1,0.3-0.1h2.4c1.6,0,2.4,0.7,2.4,2.1
		c0,0.9-0.3,1.5-1,1.8l1,1.8c0,0.1,0.1,0.1,0.1,0.2c0,0.1,0,0.2-0.1,0.3c-0.1,0.1-0.2,0.1-0.3,0.1h-0.7c-0.2,0-0.4-0.1-0.5-0.3
		l-1-1.8h-1.2V33c0,0.1,0,0.2-0.1,0.3c-0.1,0.1-0.2,0.1-0.3,0.1h-0.7C496.3,33.3,496.2,33.3,496.1,33.2z M498.8,29.9
		c0.3,0,0.6-0.1,0.7-0.2c0.1-0.1,0.2-0.3,0.2-0.5c0-0.2-0.1-0.4-0.2-0.5c-0.1-0.1-0.4-0.2-0.7-0.2h-1.3v1.4H498.8z"/>
</g>
</svg>
