<?xml version="1.0" encoding="utf-8"?>
<!-- Generator: Adobe Illustrator 22.1.0, SVG Export Plug-In . SVG Version: 6.00 Build 0)  -->
<!DOCTYPE svg PUBLIC "-//W3C//DTD SVG 1.1//EN" "http://www.w3.org/Graphics/SVG/1.1/DTD/svg11.dtd">
<svg version="1.1" id="Layer_1" xmlns="http://www.w3.org/2000/svg" xmlns:xlink="http://www.w3.org/1999/xlink" x="0px" y="0px"
	 viewBox="0 0 645 129" style="enable-background:new 0 0 645 129;" xml:space="preserve">
<style type="text/css">
	.st0{fill:#472D59;}
	.st1{fill:#70468C;}
	.st2{fill:#FFFFFF;}
</style>
<title>Artboard 1</title>
<g>
	<path class="st0" d="M2,19.5v46C2,114.8,55.2,129,55.2,129s53.2-14.2,53.2-63.5v-46c0,0-29-2.8-53.2-19.5C31,16.7,2,19.5,2,19.5"/>
	<path class="st1" d="M177.2,90.1h-19.9c-0.1-3.8-0.1-7.9-0.1-12V49.7c0-4,0.3-8,0.4-12l8.7-1v-4h-29.1v4l8.2,0.9
		c0.1,4.1,0.2,8.1,0.2,12.1V78c0,4-0.1,8.1-0.2,12.1l-8.2,0.9v4.5h48.2l1-18.4h-6.7L177.2,90.1z"/>
	<path class="st1" d="M229.1,53.5c-1.7-1.7-3.7-3-5.9-3.8c-2.4-0.9-5-1.4-7.7-1.4c-3.1,0-6.1,0.6-8.9,1.8c-2.7,1.2-5.2,2.9-7.3,5
		c-2.1,2.2-3.8,4.9-4.9,7.8c-1.2,3.2-1.8,6.5-1.8,9.9s0.5,6.8,1.6,10c0.9,2.8,2.5,5.4,4.5,7.5c1.9,2.1,4.3,3.7,6.9,4.7
		c2.9,1.1,6,1.7,9.1,1.6c4.2,0.1,8.3-1,11.9-3.1c3.3-2.1,5.8-5.2,7.1-8.8L231,83c-1.4,2-3.2,3.7-5.3,5.1c-2.2,1.3-4.7,2-7.3,1.9
		c-3.9,0.1-7.7-1.5-10.4-4.4s-4.1-7-4.2-13.1h29.8c0.2-0.8,0.4-1.5,0.5-2.3c0.1-0.9,0.2-1.8,0.2-2.7c0.1-2.7-0.4-5.4-1.3-7.9
		C232.2,57.3,230.8,55.3,229.1,53.5 M223,67c-0.8,1-2.3,1.7-4.6,1.7h-14.3c0.2-2.5,0.7-5.1,1.5-7.5c0.6-1.8,1.6-3.4,2.8-4.9
		c1-1.1,2.2-2.1,3.6-2.7c1.2-0.5,2.4-0.8,3.7-0.8c2.3,0,4.5,1,6,2.8c1.7,2,2.5,4.6,2.4,7.2C224.2,64.3,223.8,65.8,223,67"/>
	<path class="st1" d="M272.2,52c-3.2-2.5-7.4-3.7-12.5-3.7c-2.5,0-5,0.3-7.3,1.1c-2.1,0.7-4,1.7-5.7,3.1c-1.6,1.3-2.9,3-3.7,4.9
		c-2,4.6-1.7,9.9,0.7,14.3c1.3,2.2,3.2,4,5.5,5.3c-1.8,1.2-3.4,2.8-4.8,4.5c-1.1,1.5-1.7,3.3-1.7,5.2c0,1.5,0.4,3,1.2,4.3
		c0.9,1.5,2.3,2.7,3.9,3.4c-2.5,1.1-4.8,2.8-6.7,4.8c-1.3,1.5-2.1,3.4-2.1,5.4c0,3,1.6,5.5,4.7,7.4c3.1,1.9,8.1,2.8,14.9,2.8
		c3.8,0.1,7.6-0.4,11.3-1.3c2.9-0.8,5.6-2,8-3.7c2-1.4,3.6-3.2,4.8-5.3c1-1.9,1.6-4.1,1.6-6.2c0.1-3.3-1.3-6.4-4-8.3
		c-2.6-2-6.9-2.9-12.9-2.9h-10.1c-1.7,0.1-3.4-0.3-4.8-1.2c-1-0.8-1.6-2-1.5-3.2c0-0.7,0.1-1.5,0.4-2.1c0.3-0.7,0.7-1.4,1.1-2
		c1.1,0.3,2.2,0.6,3.4,0.7c1.2,0.2,2.4,0.2,3.7,0.2c2.5,0,4.9-0.3,7.3-1.1c2.1-0.7,4-1.7,5.7-3.1c1.6-1.3,2.9-3,3.8-4.9
		c0.9-2.1,1.4-4.3,1.3-6.6c0.1-2.8-0.7-5.6-2.1-8.1h9.3v-6.3l-1.5-1L272.2,52z M253.4,96c0.9,0.1,1.9,0.2,2.8,0.2h10.5
		c1.4,0,2.8,0.1,4.1,0.4c0.9,0.2,1.8,0.7,2.6,1.3c0.6,0.5,1.1,1.1,1.4,1.8c0.3,0.6,0.4,1.3,0.4,2c0,2.3-1.3,4.3-4,6
		c-2.6,1.7-6.5,2.5-11.5,2.5c-2.8,0.1-5.6-0.5-8.1-1.8c-2.1-1.2-3.1-3.3-3.1-6.3c0-1.2,0.2-2.3,0.6-3.4c0.5-1.1,1.1-2.1,1.8-3.1
		C251.8,95.8,252.6,95.9,253.4,96 M265.9,72.2c-1.4,2.1-3.8,3.3-6.3,3.1c-2.4,0.1-4.8-1.1-6.1-3.1c-1.4-2.1-2.1-4.9-2.1-8.4
		c-0.1-2.9,0.6-5.9,2.2-8.4c2.6-3.4,7.5-4.1,10.9-1.6c0.6,0.4,1.1,1,1.6,1.6c1.6,2.5,2.3,5.4,2.2,8.3
		C268.1,67.3,267.4,70.2,265.9,72.2"/>
	<path class="st1" d="M331.8,88.8c-0.4,0.5-0.9,0.9-1.4,1.3s-1,0.5-1.6,0.5c-1.8,0-2.5-1.5-2.5-4.5v-20c0-6.6-1.5-11.2-4-13.9
		s-6.6-4-12-4s-10,1.2-13.5,3.5c-3.2,2-5.4,5.3-6.1,9c0.1,1.2,0.7,2.4,1.6,3.2s2.2,1.3,3.4,1.2c3.2,0,5.1-2,5.9-6l1.3-6.1
		c0.7-0.1,1.3-0.2,2-0.3s1.3-0.1,1.9-0.1c3.1,0,5.4,0.8,6.7,2.5s2,4.6,2,8.9v2.6c-1.5,0.5-3.5,1-5.2,1.5s-3.2,0.9-4.5,1.4
		c-2.9,1-5.7,2.2-8.4,3.6c-1.9,1-3.6,2.3-5.1,3.8c-1.1,1.1-2,2.5-2.5,3.9c-0.4,1.3-0.7,2.7-0.7,4.1c0,3.8,1.2,6.7,3.7,8.7
		c2.6,2,5.8,3.1,9.1,3c1.3,0,2.7-0.1,4-0.4c1.2-0.3,2.3-0.7,3.4-1.3c1.1-0.6,2.2-1.3,3.1-2.1c1-0.9,2.1-1.9,3.3-3
		c0.5,1.9,1.7,3.6,3.3,4.7c1.9,1.2,4.1,1.8,6.4,1.7c1.8,0,3.6-0.4,5.2-1.3c1.7-1.2,3.1-2.8,4-4.8l-2.2-1.9L331.8,88.8z M315.5,86.1
		c-1.4,1.2-3.1,2.3-4.8,3c-1.2,0.5-2.4,0.8-3.7,0.8c-2.1,0.1-4.1-0.7-5.5-2.1c-0.6-0.6-1.1-1.3-1.4-2c-0.4-1-0.6-2-0.5-3
		c0-1.8,0.6-3.6,1.6-5.1c1.1-1.7,3.3-3.2,6.8-4.5c0.9-0.3,2.1-0.7,3.4-1.1s2.7-0.9,4.2-1.3L315.5,86.1z"/>
	<path class="st1" d="M356,82.8c0-2.5,0.1-5,0.1-7.5V40.6l0.3-13.5l-1.1-0.8l-16.8,4.3v3.6l7.6,1v40.1c0,2.5-0.4,4.9-0.4,7.4
		s0.1,5,0,7.5l-6.5,1.2v3.9h23.7v-3.9l-6.6-1.2C356.3,87.8,356,85.3,356,82.8"/>
	<path class="st1" d="M409.3,67.2c-1.6-1.7-3.4-3.2-5.4-4.4c-2.6-1.6-5.4-2.8-8.3-3.8l-4.4-1.6c-2.9-0.9-5.5-2.4-7.9-4.3
		c-1.9-1.7-2.8-4.2-2.7-6.7c0-1.5,0.3-3,1-4.4c0.6-1.3,1.5-2.4,2.6-3.2c1.1-0.9,2.4-1.6,3.8-2c1.5-0.5,3.1-0.7,4.8-0.7
		c2.6,0,5.1,0.6,7.5,1.7l2,11.2h6.9l0.6-12.7c-2.3-1.6-4.9-2.9-7.6-3.7c-3-0.9-6.1-1.4-9.3-1.3c-3.1,0-6.2,0.4-9.1,1.3
		c-2.5,0.8-4.9,2-7,3.7c-4,3.2-6.2,8-6.1,13.1c-0.1,4.4,1.5,8.7,4.6,11.9c3.6,3.5,7.9,6.1,12.6,7.8l4.2,1.5c1.7,0.6,3.3,1.3,4.9,2.1
		c1.2,0.6,2.3,1.4,3.3,2.3c0.9,0.8,1.5,1.7,2,2.8c0.4,1.1,0.6,2.3,0.6,3.5c0.2,3.1-1.2,6.1-3.7,8c-2.4,1.9-5.8,2.8-10,2.8
		c-1.8,0-3.5-0.2-5.2-0.6c-1.6-0.4-3.1-1.1-4.5-1.8l-1.9-11.4h-6.9L370,91.7c2.7,1.6,5.7,2.8,8.8,3.6c3.4,0.9,7,1.4,10.6,1.4
		c3.3,0,6.6-0.4,9.7-1.4c2.7-0.8,5.3-2.1,7.5-3.9c2-1.6,3.7-3.7,4.9-6c1.2-2.4,1.8-5,1.8-7.7c0-1.9-0.3-3.8-0.9-5.6
		C411.6,70.3,410.6,68.6,409.3,67.2"/>
	<path class="st1" d="M463.9,82.7V65.4c0-6-1.2-10.4-3.5-13.1s-5.5-4-9.9-4c-2.9,0-5.8,0.7-8.3,2.1c-2.9,1.6-5.4,3.8-7.4,6.4V27.1
		l-1.4-0.8l-16.9,4.3v3.6l7.6,1v47.3c0,2.7,0.2,5.3,0.1,7.7l-6.3,1.2v3.9h22.9v-3.9l-6-1.2c-0.1-2.3-0.1-4.9-0.1-7.7v-21
		c1.8-1.8,3.7-3.3,5.9-4.5c1.8-1,3.8-1.5,5.8-1.5c2.5,0,4.2,0.8,5.2,2.5s1.5,4.5,1.5,8.5v16.1c0,2.7,0.2,5.3,0.1,7.6l-6.2,1.2v3.9
		h23v-3.9l-6-1.2C463.9,87.9,463.9,85.4,463.9,82.7"/>
	<path class="st1" d="M492.9,82.6V62.5V49.3l-1.2-1l-16.4,5.9v3.5l6.6,0.9c0.1,1.9,0.1,3.7,0.2,5.5c0.1,1.7,0.1,3.9,0.1,6.5v12
		c0,2.7,0.2,5.3,0.1,7.7l-6.2,1.2v3.9H499v-3.9l-6-1.2C493,87.9,492.9,85.4,492.9,82.6"/>
	<path class="st1" d="M538.8,53.5c-1.7-1.7-3.7-3-5.9-3.8c-2.4-0.9-5-1.4-7.7-1.4c-3.1,0-6.1,0.6-8.9,1.8c-2.7,1.2-5.2,2.9-7.3,5
		c-2.1,2.2-3.8,4.9-4.9,7.8c-1.2,3.2-1.8,6.5-1.8,9.9s0.5,6.8,1.6,10c0.9,2.8,2.5,5.4,4.5,7.5c1.9,2.1,4.3,3.7,6.9,4.7
		c2.9,1.1,6,1.7,9.1,1.6c4.2,0.1,8.3-1,11.9-3.1c3.3-2.1,5.8-5.2,7.1-8.8l-2.8-1.7c-1.4,2-3.2,3.7-5.3,5.1c-2.2,1.3-4.7,2-7.3,1.9
		c-3.9,0.1-7.7-1.5-10.4-4.4s-4.1-7-4.2-13.1h29.8c0.2-0.8,0.4-1.5,0.5-2.3c0.1-0.9,0.2-1.8,0.2-2.7c0-2.7-0.4-5.4-1.4-7.9
		C541.9,57.3,540.5,55.3,538.8,53.5 M532.7,67c-0.8,1-2.3,1.7-4.6,1.7h-14.3c0.1-2.5,0.7-5.1,1.5-7.5c0.6-1.8,1.6-3.4,2.8-4.9
		c1-1.1,2.2-2,3.6-2.7c1.2-0.5,2.4-0.8,3.7-0.8c2.3,0,4.5,1,6,2.8c1.7,2,2.5,4.6,2.4,7.2C533.9,64.4,533.5,65.8,532.7,67"/>
	<path class="st1" d="M565.6,82.8c0-2.5,0-5,0-7.5V40.6l0.3-13.5l-1.1-0.8L548,30.6v3.6l7.7,1v40.1c0,2.5-0.3,4.9-0.3,7.4s0,5,0,7.5
		l-6.5,1.2v3.9h23.7v-3.9l-6.5-1.2C565.9,87.8,565.7,85.3,565.6,82.8"/>
	<path class="st1" d="M619.1,90.3V40.6l0.2-13.5l-1-0.8l-16.7,4.3v3.6l7.7,1V54c-3.8-3.8-7.9-5.7-12.8-5.7c-2.8,0-5.6,0.6-8.2,1.7
		c-2.5,1.2-4.7,2.9-6.5,5c-1.9,2.3-3.4,4.9-4.3,7.8c-1.1,3.3-1.6,6.7-1.6,10.1s0.4,6.8,1.4,10c0.8,2.7,2.2,5.3,3.9,7.5
		c1.6,2,3.7,3.6,6,4.7c2.4,1.1,5,1.6,7.7,1.6c2.6,0.1,5.2-0.5,7.6-1.7c2.3-1.2,4.3-2.8,6-4.7l1.1,5.9l16.3-1v-3.7L619.1,90.3z
		 M608.4,86.3c-2.6,2.5-6,3.9-9.6,4c-3.3,0-6.5-1.6-8.4-4.3c-2.2-2.9-3.3-7.3-3.3-13.4c0-2.7,0.3-5.4,0.9-7.9c0.5-2,1.4-3.9,2.6-5.6
		c1.9-2.8,5.1-4.4,8.4-4.3c3.5,0.2,6.8,1.6,9.3,3.9L608.4,86.3L608.4,86.3z"/>
	<path class="st1" d="M487,38c3.2,0,5.8-2.6,5.8-5.8s-2.6-5.8-5.8-5.8c-3.2,0-5.8,2.6-5.8,5.8S483.8,38,487,38L487,38"/>
	<path class="st1" d="M55,6.4C36.5,18.2,16.3,22.6,7.2,24.1v41.3c0,18.5,8.1,33.9,24.1,45.7c7.2,5.3,15.2,9.4,23.7,12.2"/>
	<path class="st2" d="M75.4,76.5l-2.7,13.3H55v-0.4l0,0V38.1l0,0l7.7-0.9v-4.8H32.4v4.8l7.7,0.9l0,0v51.3l0,0l-7.7,0.9V95H82l1-18.5
		H75.4z M45.9,89.5h-2.4V37.9h2.4V89.5z M51.6,89.5h-2.4V37.9h2.4V89.5z"/>
</g>
<g>
	<path class="st1" d="M635.8,23.9c0.9,0.6,1.7,1.3,2.2,2.2s0.8,2,0.8,3.1c0,1.1-0.3,2.1-0.8,3.1c-0.6,0.9-1.3,1.7-2.2,2.2
		c-0.9,0.6-2,0.8-3.1,0.8c-1.1,0-2.1-0.3-3.1-0.8c-0.9-0.6-1.7-1.3-2.2-2.2c-0.6-0.9-0.8-2-0.8-3.1c0-1.1,0.3-2.1,0.8-3.1
		c0.6-0.9,1.3-1.7,2.2-2.2c0.9-0.6,2-0.8,3.1-0.8C633.8,23.1,634.9,23.4,635.8,23.9z M635.2,33.5c0.7-0.4,1.3-1,1.8-1.8
		c0.4-0.8,0.6-1.6,0.6-2.5c0-0.9-0.2-1.7-0.6-2.5s-1-1.4-1.8-1.8s-1.6-0.7-2.5-0.7c-0.9,0-1.7,0.2-2.5,0.7c-0.7,0.4-1.3,1-1.8,1.8
		s-0.6,1.6-0.6,2.5c0,0.9,0.2,1.7,0.6,2.5c0.4,0.8,1,1.4,1.8,1.8c0.7,0.4,1.6,0.7,2.5,0.7C633.6,34.2,634.4,33.9,635.2,33.5z
		 M630.4,32.2c-0.1-0.1-0.1-0.2-0.1-0.3v-5.5c0-0.1,0-0.2,0.1-0.3c0.1-0.1,0.2-0.1,0.3-0.1h2.4c1.6,0,2.4,0.7,2.4,2.1
		c0,0.9-0.3,1.5-1,1.8l1,1.8c0,0.1,0.1,0.1,0.1,0.2c0,0.1,0,0.2-0.1,0.3c-0.1,0.1-0.2,0.1-0.3,0.1h-0.7c-0.2,0-0.4-0.1-0.5-0.3
		l-1-1.8h-1.2v1.7c0,0.1,0,0.2-0.1,0.3c-0.1,0.1-0.2,0.1-0.3,0.1h-0.7C630.6,32.3,630.5,32.3,630.4,32.2z M633.1,28.9
		c0.3,0,0.6-0.1,0.7-0.2c0.1-0.1,0.2-0.3,0.2-0.5c0-0.2-0.1-0.4-0.2-0.5c-0.1-0.1-0.4-0.2-0.7-0.2h-1.3v1.4H633.1z"/>
</g>
</svg>
